<?xml version="1.0" encoding="UTF-8"?>
<svg id="_haaUNSc7au_3N3MChrVwU" data-name=" haaUNSc7au 3N3MChrVwU" xmlns="http://www.w3.org/2000/svg" viewBox="0 0 510.37 474.37">
  <defs>
    <style>
      .cls-1 {
        fill: #2d3e50;
      }

      .cls-2 {
        fill: #363a94;
      }

      .cls-3 {
        fill: #24478f;
      }
    </style>
  </defs>
  <g>
    <path class="cls-1" d="M443.11,37.89h-46.12v24.71c0,19.77-14,34.59-32.95,34.59h-.82c-18.94,0-32.95-14.83-32.95-34.59v-24.71h-63.42v25.53c0,18.94-14,33.77-32.95,33.77v.82c-18.12,0-32.95-14.83-32.95-33.77v-25.53h-63.42v24.71c0,18.94-14,33.77-32.95,34.59h-.82c-18.12,0-32.95-14.83-32.95-34.59v-24.71H24.71C10.71,38.71,0,50.24,0,63.42V399.46c0,16.47,11.53,27.18,28,27.18h233.91c-6.59-10.71-12.35-23.06-15.65-36.24H35.42V136.72s0-.82,.82-.82H431.58s.82,0,.82,.82v76.6c13.18,4.12,24.71,10.71,35.42,18.12V62.6c0-13.18-10.71-24.71-24.71-24.71Z"/>
    <path class="cls-3" d="M120.25,40.36v23.06c0,9.88-6.59,17.3-15.65,17.3s-16.47-7.41-16.47-17.3V18.12c0-9.88,6.59-17.3,15.65-17.3s16.47,7.41,16.47,17.3v22.24Z"/>
    <path class="cls-3" d="M250.38,41.18v23.06c0,9.88-6.59,17.3-15.65,17.3s-16.47-7.41-16.47-17.3V17.3c0-9.88,7.41-17.3,16.47-17.3,8.24,0,15.65,7.41,15.65,17.3v23.89Z"/>
    <path class="cls-3" d="M379.69,40.36v22.24c0,10.71-6.59,18.12-15.65,18.12s-16.47-7.41-16.47-18.12V17.3c0-9.88,6.59-17.3,15.65-17.3s15.65,7.41,16.47,17.3v23.06Z"/>
    <path class="cls-3" d="M140.02,357.45h-60.95c-7.41,0-13.18-5.77-13.18-13.18v-40.36c0-7.41,5.77-13.18,13.18-13.18h60.95c7.41,0,13.18,5.77,13.18,13.18v40.36c0,6.59-6.59,13.18-13.18,13.18Z"/>
    <path class="cls-3" d="M140.02,242.15h-60.95c-7.41,0-13.18-5.77-13.18-13.18v-40.36c0-7.41,5.77-13.18,13.18-13.18h60.95c7.41,0,13.18,5.77,13.18,13.18v40.36c0,7.41-6.59,13.18-13.18,13.18Z"/>
    <path class="cls-3" d="M240.5,350.04v7.41h-37.06c-7.41,0-13.18-5.77-13.18-13.18v-40.36c0-7.41,5.77-13.18,13.18-13.18h50.24c-8.24,18.12-13.18,37.89-13.18,59.3Z"/>
    <path class="cls-3" d="M264.38,242.15h-60.95c-7.41,0-13.18-5.77-13.18-13.18v-40.36c0-7.41,5.77-13.18,13.18-13.18h60.95c7.41,0,13.18,5.77,13.18,13.18v40.36c.82,7.41-5.77,13.18-13.18,13.18Z"/>
    <path class="cls-3" d="M402.75,188.61v18.12c-5.77-.82-12.35-.82-18.12-.82-25.53,0-49.42,6.59-70.01,18.12v-35.42c0-7.41,5.77-13.18,13.18-13.18h60.95c8.24,0,14,5.77,14,13.18Z"/>
  </g>
  <g>
    <path class="cls-2" d="M389.72,243.34c-5.07,1.87-8.4,5.92-9.24,11.12q-.36,2.42-4.11,3.08c-23.14,4.41-41.5,19.27-50.2,40.54-5.14,12.69-6.83,23.44-7.55,48.33-.72,24.29-2.11,35.52-5.86,47.36-4.59,14.68-10.69,22.9-27.31,36.55l-6.28,5.2,57.81,.18c31.78,.06,83.79,.06,115.57,0l57.81-.18-6.58-5.44c-12.51-10.21-18.06-16.55-22.9-26.1-6.58-13.17-9.12-27.61-10.03-57.57-.72-24.41-1.63-30.99-5.74-43.38-5.01-14.86-13.65-26.82-25.19-34.62-7.31-4.95-19.63-9.91-27.85-11.12-2.66-.42-2.84-.54-2.84-2.17,0-4.11-3.14-8.7-7.55-10.93-3.02-1.57-8.88-1.99-11.96-.85Z"/>
    <path class="cls-2" d="M363.93,449.71c0,2.11,2.17,7.61,4.23,10.57,4.53,6.58,11.72,11.48,19.69,13.35,10.39,2.42,22.84-1.27,30.27-8.94,2.6-2.66,6.1-8.64,6.89-11.66,.36-1.33,.72-2.9,.91-3.5,.3-.97-1.45-1.03-30.81-1.03-30.87,0-31.17,0-31.17,1.21Z"/>
  </g>
</svg>