<svg xmlns:xlink="http://www.w3.org/1999/xlink" xmlns="http://www.w3.org/2000/svg" width="512" height="512" style="overflow: visible;" viewBox="0 0 512 512" data-svgdocument="" id="_haaUNSc7au_3N3MChrVwU" class="fl-svgdocument" x="0" y="0" overflow="hidden" data-bbox="53.58827685305948 195.57185517737742 406.63626455470296 118.64251231382332"><defs id="_GRO_lL0VPtfvZcUNwkGRn" transform="matrix(3.5601909160614014, 0, 0, 3.5601909160614014, -0.239524245262146, -628.6990966796875)" data-uid="o_f14l048b4_4"></defs><path text="Schedule" text-anchor="start" font-size="100" letter-spacing="0" side="left" offset="0" dx="0" dy="0" space="preserve" href="" font-family="Teko" font-scale="contain" x="0" y="0" fill="#24478F" font-weight="700" data-fl-textpath="" id="_efnfk55a8_13" transform="matrix(0.7704977989196777, 0, 0, 0.7704977989196777, 186.2355194091797, 247.87986755371094)" data-uid="o_f14l048b4_5" d="M 28.6-14.7L 28.6-14.7L 28.6-23.8Q 28.6-26  26.1-26L 26.1-26L 16.5-26Q 9.1-26  6.05-29.25Q 3-32.5  3-38.6L 3-38.6L 3-51.8Q 3-64.2  17.6-64.2L 17.6-64.2L 31.3-64.2Q 45.9-64.2  45.9-51.8L 45.9-51.8L 45.9-44.1L 28.4-44.1L 28.4-49.5Q 28.4-51.7  25.9-51.7L 25.9-51.7L 23-51.7Q 20.5-51.7  20.5-49.5L 20.5-49.5L 20.5-40Q 20.5-37.8  23-37.8L 23-37.8L 32.4-37.8Q 39.8-37.8  42.95-34.7Q 46.1-31.6  46.1-25.6L 46.1-25.6L 46.1-12.4Q 46.1 0  31.5 0L 31.5 0L 17.9 0Q 3.2 0  3.2-12.4L 3.2-12.4L 3.2-20.1L 20.7-20.1L 20.7-14.7Q 20.7-12.5  23.2-12.5L 23.2-12.5L 26.1-12.5Q 28.6-12.5  28.6-14.7ZM 92.20000000000002-37.5L 92.20000000000002-30.6L 75.80000000000001-30.6L 75.80000000000001-35.2Q 75.80000000000001-37.4  73.30000000000001-37.4L 73.30000000000001-37.4L 71.60000000000001-37.4Q 69.10000000000001-37.4  69.10000000000001-35.2L 69.10000000000001-35.2L 69.10000000000001-14.7Q 69.10000000000001-12.5  71.60000000000001-12.5L 71.60000000000001-12.5L 73.30000000000001-12.5Q 75.80000000000001-12.5  75.80000000000001-14.7L 75.80000000000001-14.7L 75.80000000000001-19.3L 92.20000000000002-19.3L 92.20000000000002-12.4Q 92.20000000000002 0  77.5 0L 77.5 0L 66.80000000000001 0Q 52.10000000000001 0  52.10000000000001-12.4L 52.10000000000001-12.4L 52.10000000000001-37.5Q 52.10000000000001-49.9  66.80000000000001-49.9L 66.80000000000001-49.9L 77.5-49.9Q 92.20000000000002-49.9  92.20000000000002-37.5L 92.20000000000002-37.5ZM 124-49.9L 124-49.9L 125.80000000000001-49.9Q 139.1-49.9  139.1-37.5L 139.1-37.5L 139.1 0L 122.1 0L 122.1-35.2Q 122.1-37.4  119.6-37.4L 119.6-37.4L 117.9-37.4Q 115.2-37.4  115.2-34.4L 115.2-34.4L 115.2 0L 98.2 0L 98.2-66.9L 115.2-66.9L 115.2-44.5Q 117.1-49.9  124-49.9ZM 160.3-49.9L 160.3-49.9L 172.50000000000003-49.9Q 187.20000000000002-49.9  187.20000000000002-37.5L 187.20000000000002-37.5L 187.20000000000002-20.5L 161.70000000000002-20.5L 161.70000000000002-13.9Q 161.70000000000002-11.7  164.20000000000002-11.7L 164.20000000000002-11.7L 168.60000000000002-11.7Q 171.10000000000002-11.7  171.10000000000002-14.1L 171.10000000000002-14.1L 171.10000000000002-16.9L 187.20000000000002-16.9L 187.20000000000002-12.4Q 187.20000000000002 0  172.50000000000003 0L 172.50000000000003 0L 160.3 0Q 145.60000000000002 0  145.60000000000002-12.4L 145.60000000000002-12.4L 145.60000000000002-37.5Q 145.60000000000002-49.9  160.3-49.9ZM 161.70000000000002-36L 161.70000000000002-29.7L 171.10000000000002-29.7L 171.10000000000002-36Q 171.10000000000002-38.2  168.60000000000002-38.2L 168.60000000000002-38.2L 164.20000000000002-38.2Q 161.70000000000002-38.2  161.70000000000002-36L 161.70000000000002-36ZM 216.60000000000005-44.5L 216.60000000000005-66.9L 233.60000000000005-66.9L 233.60000000000005 0L 216.90000000000003 0L 216.90000000000003-6.4Q 215.50000000000006 0  207.80000000000004 0L 207.80000000000004 0L 206.00000000000006 0Q 192.70000000000005 0  192.70000000000005-12.4L 192.70000000000005-12.4L 192.70000000000005-37.5Q 192.70000000000005-49.9  206.00000000000006-49.9L 206.00000000000006-49.9L 207.80000000000004-49.9Q 214.70000000000005-49.9  216.60000000000005-44.5L 216.60000000000005-44.5ZM 212.20000000000005-12.5L 212.20000000000005-12.5L 213.90000000000003-12.5Q 216.60000000000005-12.5  216.60000000000005-15.5L 216.60000000000005-15.5L 216.60000000000005-34.4Q 216.60000000000005-37.4  213.90000000000003-37.4L 213.90000000000003-37.4L 212.20000000000005-37.4Q 209.70000000000005-37.4  209.70000000000005-35.2L 209.70000000000005-35.2L 209.70000000000005-14.7Q 209.70000000000005-12.5  212.20000000000005-12.5ZM 265-15.5L 265-49.9L 282-49.9L 282 0L 265.3 0L 265.3-6.4Q 263.90000000000003 0  256.20000000000005 0L 256.20000000000005 0L 254.40000000000003 0Q 241.10000000000002 0  241.10000000000002-12.4L 241.10000000000002-12.4L 241.10000000000002-49.9L 258.1-49.9L 258.1-14.7Q 258.1-12.5  260.6-12.5L 260.6-12.5L 262.3-12.5Q 265-12.5  265-15.5L 265-15.5ZM 307-66.9L 307 0L 290 0L 290-66.9L 307-66.9ZM 328.7-49.9L 328.7-49.9L 340.9-49.9Q 355.6-49.9  355.6-37.5L 355.6-37.5L 355.6-20.5L 330.1-20.5L 330.1-13.9Q 330.1-11.7  332.6-11.7L 332.6-11.7L 337-11.7Q 339.5-11.7  339.5-14.1L 339.5-14.1L 339.5-16.9L 355.6-16.9L 355.6-12.4Q 355.6 0  340.9 0L 340.9 0L 328.7 0Q 314 0  314-12.4L 314-12.4L 314-37.5Q 314-49.9  328.7-49.9ZM 330.1-36L 330.1-29.7L 339.5-29.7L 339.5-36Q 339.5-38.2  337-38.2L 337-38.2L 332.6-38.2Q 330.1-38.2  330.1-36L 330.1-36Z"></path><path id="_efnfk55a8_19" fill="#24478F" transform="matrix(0.7704977989196777, 0, 0, 0.7704977989196777, 187.2616424560547, 306.4394226074219)" text="Bell" text-anchor="start" font-size="100" letter-spacing="0" side="left" offset="0" dx="0" dy="0" space="preserve" href="" font-family="Teko" font-scale="contain" x="0" y="0" font-weight="700" data-fl-textpath="" data-uid="o_f14l048b4_6" d="M 30.9-40.1L 30.9-40.1L 30.9-50.5Q 30.9-52.7  28.4-52.7L 28.4-52.7L 21.2-52.7L 21.2-37.9L 28.4-37.9Q 30.9-37.9  30.9-40.1ZM 30.9-13.7L 30.9-13.7L 30.9-24.2Q 30.9-26.4  28.4-26.4L 28.4-26.4L 21.2-26.4L 21.2-11.5L 28.4-11.5Q 30.9-11.5  30.9-13.7ZM 4 0L 4-64.2L 33.4-64.2Q 48.1-64.2  48.1-51.8L 48.1-51.8L 48.1-43.6Q 48.1-34.9  43.3-32.3L 43.3-32.3Q 46.1-31.1  47.1-28.65Q 48.1-26.2  48.1-22L 48.1-22L 48.1-12.4Q 48.1 0  33.4 0L 33.4 0L 4 0ZM 69.30000000000001-49.9L 69.30000000000001-49.9L 81.5-49.9Q 96.20000000000002-49.9  96.20000000000002-37.5L 96.20000000000002-37.5L 96.20000000000002-20.5L 70.70000000000002-20.5L 70.70000000000002-13.9Q 70.70000000000002-11.7  73.20000000000002-11.7L 73.20000000000002-11.7L 77.60000000000001-11.7Q 80.10000000000001-11.7  80.10000000000001-14.1L 80.10000000000001-14.1L 80.10000000000001-16.9L 96.20000000000002-16.9L 96.20000000000002-12.4Q 96.20000000000002 0  81.5 0L 81.5 0L 69.30000000000001 0Q 54.60000000000001 0  54.60000000000001-12.4L 54.60000000000001-12.4L 54.60000000000001-37.5Q 54.60000000000001-49.9  69.30000000000001-49.9ZM 70.70000000000002-36L 70.70000000000002-29.7L 80.10000000000001-29.7L 80.10000000000001-36Q 80.10000000000001-38.2  77.60000000000001-38.2L 77.60000000000001-38.2L 73.20000000000002-38.2Q 70.70000000000002-38.2  70.70000000000002-36L 70.70000000000002-36ZM 119.7-66.9L 119.7 0L 102.7 0L 102.7-66.9L 119.7-66.9ZM 144.7-66.9L 144.7 0L 127.69999999999999 0L 127.69999999999999-66.9L 144.7-66.9Z"></path><g transform="matrix(2.1052629947662354, 0, 0, 2.1052629947662354, 50.21985626220703, 186.94027709960938)" data-uid="o_f14l048b4_7"><path class="st0" d="M55.4 8.7h-5.6v3c0 2.4-1.7 4.2-4 4.2h-.1c-2.3 0-4-1.8-4-4.2v-3H34V11.8c0 2.3-1.7 4.1-4 4.1v.1c-2.2 0-4-1.8-4-4.1V8.8h-7.7v3c0 2.3-1.7 4.1-4 4.2h-.1c-2.2 0-4-1.8-4-4.2v-3H4.6c-1.7 0-3 1.4-3 3v40.8c0 2 1.4 3.3 3.4 3.3h28.4c-.8-1.3-1.5-2.8-1.9-4.4H5.9V20.7s0-.1.1-.1h48s.1 0 .1.1V30c1.6.5 3 1.3 4.3 2.2V11.7c0-1.6-1.3-3-3-3z" fill="#2D3E50" transform="matrix(1, 0, 0, 1, 0, 0)" data-uid="o_f14l048b4_8"></path><path class="st1" d="M16.2 9v2.8c0 1.2-.8 2.1-1.9 2.1-1.1 0-2-.9-2-2.1V6.3c0-1.2.8-2.1 1.9-2.1 1.1 0 2 .9 2 2.1V9z" fill="#24478F" transform="matrix(1, 0, 0, 1, 0, 0)" data-uid="o_f14l048b4_9"></path><path class="st1" d="M32 9.1v2.8c0 1.2-.8 2.1-1.9 2.1-1.1 0-2-.9-2-2.1V6.2c0-1.2.9-2.1 2-2.1 1 0 1.9.9 1.9 2.1v2.9z" fill="#24478F" transform="matrix(1, 0, 0, 1, 0, 0)" data-uid="o_f14l048b4_10"></path><path class="st1" d="M47.7 9v2.7c0 1.3-.8 2.2-1.9 2.2-1.1 0-2-.9-2-2.2V6.2c0-1.2.8-2.1 1.9-2.1 1.1 0 1.9.9 2 2.1V9z" fill="#24478F" transform="matrix(1, 0, 0, 1, 0, 0)" data-uid="o_f14l048b4_11"></path><path class="st1" d="M18.6 47.5h-7.4c-.9 0-1.6-.7-1.6-1.6V41c0-.9.7-1.6 1.6-1.6h7.4c.9 0 1.6.7 1.6 1.6v4.9c0 .8-.8 1.6-1.6 1.6z" fill="#24478F" transform="matrix(1, 0, 0, 1, 0, 0)" data-uid="o_f14l048b4_12"></path><path class="st1" d="M18.6 33.5h-7.4c-.9 0-1.6-.7-1.6-1.6V27c0-.9.7-1.6 1.6-1.6h7.4c.9 0 1.6.7 1.6 1.6v4.9c0 .9-.8 1.6-1.6 1.6z" fill="#24478F" transform="matrix(1, 0, 0, 1, 0, 0)" data-uid="o_f14l048b4_13"></path><path class="st1" d="M30.8 46.6v.9h-4.5c-.9 0-1.6-.7-1.6-1.6V41c0-.9.7-1.6 1.6-1.6h6.1c-1 2.2-1.6 4.6-1.6 7.2z" fill="#24478F" transform="matrix(1, 0, 0, 1, 0, 0)" data-uid="o_f14l048b4_14"></path><path class="st1" d="M33.7 33.5h-7.4c-.9 0-1.6-.7-1.6-1.6V27c0-.9.7-1.6 1.6-1.6h7.4c.9 0 1.6.7 1.6 1.6v4.9c.1.9-.7 1.6-1.6 1.6z" fill="#24478F" transform="matrix(1, 0, 0, 1, 0, 0)" data-uid="o_f14l048b4_15"></path><path class="st1" d="M50.5 27v2.2c-.7-.1-1.5-.1-2.2-.1-3.1 0-6 .8-8.5 2.2V27c0-.9.7-1.6 1.6-1.6h7.4c1 0 1.7.7 1.7 1.6z" fill="#24478F" transform="matrix(1, 0, 0, 1, 0, 0)" data-uid="o_f14l048b4_16"></path><path class="st1" d="M58.3 45.7c0 1.2-.2 2.3-.5 3.3h-.1s.1-.1.1-.4c.1-.3.2-.7.3-1.2.1-.5.2-1.2.1-1.9 0-.7-.1-1.6-.3-2.5 0-.2-.1-.4-.2-.6.4 1.1.6 2.2.6 3.3z" fill="#007BBF" transform="matrix(1, 0, 0, 1, 0, 0)" data-uid="o_f14l048b4_17"></path><path transform="matrix(1, -0.004324088804423809, 0.004324088804423809, 1, -0.2353000044822693, 0.2476000040769577)" class="st1" fill="#24478F" data-cx="57.1" data-cy="54.5" data-rx="2" data-ry="2" d="M55.1 54.5 C55.1 53.3954305004 55.995430500400005 52.5 57.1 52.5 C58.2045694996 52.5 59.1 53.3954305004 59.1 54.5 C59.1 55.6045694996 58.2045694996 56.5 57.1 56.5 C55.995430500400005 56.5 55.1 55.6045694996 55.1 54.5 Z" data-uid="o_f14l048b4_18"></path><path transform="matrix(0.5018999576568604, -0.8649000525474548, 0.8649000525474548, 0.5018999576568604, -24.61590003967285, 73.51360321044922)" class="st1" fill="#24478F" data-cx="51.5" data-cy="58.1" data-rx="1.7" data-ry="1.7" d="M49.8 58.1 C49.8 57.16111592534 50.56111592534 56.4 51.5 56.4 C52.43888407466 56.4 53.2 57.16111592534 53.2 58.1 C53.2 59.038884074660004 52.43888407466 59.800000000000004 51.5 59.800000000000004 C50.56111592534 59.800000000000004 49.8 59.038884074660004 49.8 58.1 Z" data-uid="o_f14l048b4_19"></path><path transform="matrix(0.8704000115394592, -0.49240007996559143, 0.49240007996559143, 0.8704000115394592, -22.93549919128418, 29.65220069885254)" class="st1" fill="#24478F" data-cx="44.9" data-cy="58.4" data-rx="1.5" data-ry="1.5" d="M43.4 58.4 C43.4 57.5715728753 44.0715728753 56.9 44.9 56.9 C45.7284271247 56.9 46.4 57.5715728753 46.4 58.4 C46.4 59.2284271247 45.7284271247 59.9 44.9 59.9 C44.0715728753 59.9 43.4 59.2284271247 43.4 58.4 Z" data-uid="o_f14l048b4_20"></path><path transform="matrix(0.015327460132539272, -0.9998999834060669, 0.9998999834060669, 0.015327460132539272, -16.864900588989258, 94.05259704589844)" class="st1" fill="#24478F" data-cx="39.3" data-cy="55.6" data-rx="0.9" data-ry="0.9" d="M38.4 55.6 C38.4 55.102943725180005 38.80294372518 54.7 39.3 54.7 C39.797056274819994 54.7 40.199999999999996 55.102943725180005 40.199999999999996 55.6 C40.199999999999996 56.09705627482 39.797056274819994 56.5 39.3 56.5 C38.80294372518 56.5 38.4 56.09705627482 38.4 55.6 Z" data-uid="o_f14l048b4_21"></path><path class="st0" d="M62.4 46.2c0 1.4-.2 2.8-.6 4l-4-1.2c.3-1 .5-2.2.5-3.3 0-1.2-.2-2.3-.5-3.3-.7-2.1-2-3.9-3.6-5.2l-.1-.1c-.7-.6-1.6-1.1-2.5-1.4l-1.8-.6-.2-.1h-.2c-.2 0-.3-.1-.5-.1H48c-1.3 0-2.6.1-3.8.5-1.2.4-2.4 1-3.4 1.8s-1.8 1.6-2.5 2.6c-.2.2-.3.5-.5.7-.1.1-.1.2-.2.4-.1.1-.1.2-.2.4-.3.5-.4 1-.6 1.5-.1.2-.2.5-.2.7 0 .1-.1.2-.1.4 0 .1-.1.2-.1.3v.4c0 .1 0 .2-.1.3 0 .2-.1.4-.1.6V47.6c.1.6.1 1.1.2 1.4 0 .2.1.3.1.4v.1l-1.3.4v-.1c0-.1-.1-.2-.1-.4-.1-.2-.1-.4-.2-.7-.1-.8-.2-1.6-.2-2.4 0-7.7 6.2-13.9 13.9-13.9 3.5 0 6.6 1.3 9.1 3.4 1.1.9 2 2 2.8 3.2 1.1 2 1.9 4.5 1.9 7.2z" fill="#2D3E50" transform="matrix(1, 0, 0, 1, 0, 0)" data-uid="o_f14l048b4_22"></path><path class="st1" d="M54.5 42.4c-.2-.4-.6-.5-1-.3-.5.2-.9.5-1.4.8H52c-.7.4-1.5.9-2.2 1.3-.4.3-.9.5-1.3.8-.3-.1-.7-.2-1-.2-.5 0-1 .2-1.4.4-.1.1-.2.2-.4.3-.9.9-1 2.2-.3 3.2.5.7 1.3 1.1 2.1 1.1.4 0 .7-.1 1-.2.1-.1.3-.1.4-.2.7-.5 1.1-1.3 1.1-2.2.7-.6 1.9-1.6 2.8-2.4.8-.7 1.5-1.3 1.6-1.4.4-.3.4-.6.1-1z" fill="#24478F" transform="matrix(1, 0, 0, 1, 0, 0)" data-uid="o_f14l048b4_23"></path></g><g transform="matrix(0.6840188503265381, 0, 0, 0.6840188503265381, 298.11077880859375, 246.46533203125)" fill="#24478F" data-uid="o_f14l048b4_24"><path fill="#24478F" d="M84.4 66L84.4 66c-4.9-.3-8.6-4.3-8.6-9.2V40c0-14.2-11.5-25.8-25.8-25.8S24.2 25.8 24.2 40v16.8c0 4.9-3.8 8.8-8.5 9.2h-.1c-.5.1-.6.6-.6.6v8c0 .5.4.9.9.9H50h34.1c.5 0 .9-.4.9-.9v-8C85 66.7 84.9 66.1 84.4 66zM18 37.9h-1.8c-.4 0-.8-.4-.8-.8.3-11.6 6.6-22.1 16.8-27.6.4-.2.8-.1 1 .3l.8 1.6c.2.4 0 .8-.3 1-9.1 5-14.8 14.4-15.1 24.7C18.7 37.6 18.4 37.9 18 37.9zM82.4 37.9h1.8c.4 0 .8-.4.8-.8-.3-11.6-6.6-22.1-16.8-27.6-.4-.2-.8-.1-1 .3l-.8 1.6c-.2.4 0 .8.3 1 9.1 5 14.8 14.4 15.1 24.7C81.7 37.6 82 37.9 82.4 37.9zM62.2 79.8c.6 0 1 .7.8 1.3-2 5.5-7.1 9.5-13 9.5s-10.9-3.9-13-9.5c-.2-.6.2-1.3.8-1.3H62.2z" transform="matrix(1, 0, 0, 1, 0, 0)" data-uid="o_f14l048b4_25"></path></g></svg>