<?xml version="1.0" encoding="UTF-8"?>
<svg id="_haaUNSc7au_3N3MChrVwU" data-name=" haaUNSc7au 3N3MChrVwU" xmlns="http://www.w3.org/2000/svg" viewBox="0 0 406.64 121.25">
  <defs>
    <style>
      .cls-1 {
        fill: #363795;
      }

      .cls-2 {
        fill: #2d3e50;
      }

      .cls-3 {
        fill: #363a94;
      }

      .cls-4 {
        fill: #24478f;
      }
    </style>
  </defs>
  <path id="_efnfk55a8_13" data-name=" efnfk55a8 13" class="cls-1" d="M154.68,40.98h0v-7.01c0-1.13-.64-1.7-1.93-1.7h-7.4c-3.8,0-6.49-.83-8.05-2.5-1.57-1.67-2.35-4.07-2.35-7.2h0V12.4c0-6.37,3.75-9.55,11.25-9.55h10.56c7.5,0,11.25,3.18,11.25,9.55h0v5.93h-13.48v-4.16c0-1.13-.64-1.7-1.93-1.7h-2.23c-1.28,0-1.93,.57-1.93,1.7h0v7.32c0,1.13,.64,1.7,1.93,1.7h7.24c3.8,0,6.51,.8,8.13,2.39s2.43,3.93,2.43,7.01h0v10.17c0,6.37-3.75,9.55-11.25,9.55h-10.48c-7.55,0-11.33-3.18-11.33-9.55h0v-5.93h13.48v4.16c0,1.13,.64,1.7,1.93,1.7h2.23c1.28,0,1.93-.57,1.93-1.7Zm49-17.57v5.32h-12.64v-3.54c0-1.13-.64-1.7-1.93-1.7h-1.31c-1.28,0-1.93,.57-1.93,1.7h0v15.8c0,1.13,.64,1.7,1.93,1.7h1.31c1.28,0,1.93-.57,1.93-1.7h0v-3.54h12.64v5.32c0,6.37-3.78,9.55-11.33,9.55h-8.24c-7.55,0-11.33-3.18-11.33-9.55h0V23.41c0-6.37,3.78-9.55,11.33-9.55h8.24c7.55,0,11.33,3.18,11.33,9.55h0Zm24.5-9.55h1.39c6.83,0,10.25,3.18,10.25,9.55h0v28.89h-13.1V25.19c0-1.13-.64-1.7-1.93-1.7h-1.31c-1.39,0-2.08,.77-2.08,2.31h0v26.51h-13.1V.76h13.1V18.02c.98-2.77,3.24-4.16,6.78-4.16Zm27.97,0h9.4c7.55,0,11.33,3.18,11.33,9.55h0v13.1h-19.65v5.09c0,1.13,.64,1.7,1.93,1.7h3.39c1.28,0,1.93-.62,1.93-1.85h0v-2.16h12.41v3.47c0,6.37-3.78,9.55-11.33,9.55h-9.4c-7.55,0-11.33-3.18-11.33-9.55h0V23.41c0-6.37,3.78-9.55,11.33-9.55Zm1.08,10.71v4.85h7.24v-4.85c0-1.13-.64-1.7-1.93-1.7h-3.39c-1.28,0-1.93,.57-1.93,1.7h0Zm42.3-6.55V.76h13.1V52.31h-12.87v-4.93c-.72,3.29-3.06,4.93-7.01,4.93h-1.39c-6.83,0-10.25-3.18-10.25-9.55h0V23.41c0-6.37,3.42-9.55,10.25-9.55h1.39c3.54,0,5.8,1.39,6.78,4.16h0Zm-3.39,24.66h1.31c1.39,0,2.08-.77,2.08-2.31h0v-14.56c0-1.54-.69-2.31-2.08-2.31h-1.31c-1.28,0-1.93,.57-1.93,1.7h0v15.8c0,1.13,.64,1.7,1.93,1.7Zm40.68-2.31V13.86h13.1V52.31h-12.87v-4.93c-.72,3.29-3.06,4.93-7.01,4.93h-1.39c-6.83,0-10.25-3.18-10.25-9.55h0V13.86h13.1v27.12c0,1.13,.64,1.7,1.93,1.7h1.31c1.39,0,2.08-.77,2.08-2.31h0ZM369.19,.76V52.31h-13.1V.76h13.1Zm16.72,13.1h9.4c7.55,0,11.33,3.18,11.33,9.55h0v13.1h-19.65v5.09c0,1.13,.64,1.7,1.93,1.7h3.39c1.28,0,1.93-.62,1.93-1.85h0v-2.16h12.41v3.47c0,6.37-3.78,9.55-11.33,9.55h-9.4c-7.55,0-11.33-3.18-11.33-9.55h0V23.41c0-6.37,3.78-9.55,11.33-9.55Zm1.08,10.71v4.85h7.24v-4.85c0-1.13-.64-1.7-1.93-1.7h-3.39c-1.28,0-1.93,.57-1.93,1.7h0Z"/>
  <path id="_efnfk55a8_19" data-name=" efnfk55a8 19" class="cls-3" d="M157.48,79.97h0v-8.01c0-1.13-.64-1.7-1.93-1.7h-5.55v11.4h5.55c1.28,0,1.93-.57,1.93-1.7Zm0,20.34h0v-8.09c0-1.13-.64-1.7-1.93-1.7h-5.55v11.48h5.55c1.28,0,1.93-.57,1.93-1.7Zm-20.73,10.56V61.4h22.65c7.55,0,11.33,3.18,11.33,9.55h0v6.32c0,4.47-1.23,7.37-3.7,8.71h0c1.44,.62,2.41,1.55,2.93,2.81,.51,1.26,.77,2.97,.77,5.12h0v7.4c0,6.37-3.78,9.55-11.33,9.55h-22.65Zm50.31-38.45h9.4c7.55,0,11.33,3.18,11.33,9.55h0v13.1h-19.65v5.09c0,1.13,.64,1.7,1.93,1.7h3.39c1.28,0,1.93-.62,1.93-1.85h0v-2.16h12.41v3.47c0,6.37-3.78,9.55-11.33,9.55h-9.4c-7.55,0-11.33-3.18-11.33-9.55h0v-19.34c0-6.37,3.78-9.55,11.33-9.55Zm1.08,10.71v4.85h7.24v-4.85c0-1.13-.64-1.7-1.93-1.7h-3.39c-1.28,0-1.93,.57-1.93,1.7h0Zm37.75-23.81v51.55h-13.1V59.32h13.1Zm19.26,0v51.55h-13.1V59.32h13.1Z"/>
  <g>
    <path class="cls-2" d="M113.26,9.68h-11.79v6.32c0,5.05-3.58,8.84-8.42,8.84h-.21c-4.84,0-8.42-3.79-8.42-8.84v-6.32h-16.21v6.53c0,4.84-3.58,8.63-8.42,8.63v.21c-4.63,0-8.42-3.79-8.42-8.63v-6.53h-16.21v6.32c0,4.84-3.58,8.63-8.42,8.84h-.21c-4.63,0-8.42-3.79-8.42-8.84v-6.32H6.32c-3.58,0-6.32,2.95-6.32,6.32V102.11c0,4.21,2.95,6.95,7.16,6.95h59.79c-1.68-2.74-3.16-5.89-4-9.26H9.05V34.95s0-.21,.21-.21H110.32s.21,0,.21,.21v19.58c3.37,1.05,6.32,2.74,9.05,4.63V16c0-3.37-2.74-6.32-6.32-6.32Z"/>
    <path class="cls-4" d="M30.74,10.32v5.89c0,2.53-1.68,4.42-4,4.42s-4.21-1.89-4.21-4.42V4.63c0-2.53,1.68-4.42,4-4.42s4.21,1.89,4.21,4.42v5.68Z"/>
    <path class="cls-4" d="M64,10.53v5.89c0,2.53-1.68,4.42-4,4.42s-4.21-1.89-4.21-4.42V4.42c0-2.53,1.89-4.42,4.21-4.42,2.11,0,4,1.89,4,4.42v6.11Z"/>
    <path class="cls-4" d="M97.05,10.32v5.68c0,2.74-1.68,4.63-4,4.63s-4.21-1.89-4.21-4.63V4.42c0-2.53,1.68-4.42,4-4.42s4,1.89,4.21,4.42v5.89Z"/>
    <path class="cls-4" d="M35.79,91.37h-15.58c-1.89,0-3.37-1.47-3.37-3.37v-10.32c0-1.89,1.47-3.37,3.37-3.37h15.58c1.89,0,3.37,1.47,3.37,3.37v10.32c0,1.68-1.68,3.37-3.37,3.37Z"/>
    <path class="cls-4" d="M35.79,61.89h-15.58c-1.89,0-3.37-1.47-3.37-3.37v-10.32c0-1.89,1.47-3.37,3.37-3.37h15.58c1.89,0,3.37,1.47,3.37,3.37v10.32c0,1.89-1.68,3.37-3.37,3.37Z"/>
    <path class="cls-4" d="M61.47,89.47v1.89h-9.47c-1.89,0-3.37-1.47-3.37-3.37v-10.32c0-1.89,1.47-3.37,3.37-3.37h12.84c-2.11,4.63-3.37,9.68-3.37,15.16Z"/>
    <path class="cls-4" d="M67.58,61.89h-15.58c-1.89,0-3.37-1.47-3.37-3.37v-10.32c0-1.89,1.47-3.37,3.37-3.37h15.58c1.89,0,3.37,1.47,3.37,3.37v10.32c.21,1.89-1.47,3.37-3.37,3.37Z"/>
    <path class="cls-4" d="M102.95,48.21v4.63c-1.47-.21-3.16-.21-4.63-.21-6.53,0-12.63,1.68-17.89,4.63v-9.05c0-1.89,1.47-3.37,3.37-3.37h15.58c2.11,0,3.58,1.47,3.58,3.37Z"/>
  </g>
  <g>
    <path class="cls-3" d="M99.62,62.2c-1.3,.48-2.15,1.51-2.36,2.84q-.09,.62-1.05,.79c-5.91,1.13-10.61,4.93-12.83,10.36-1.31,3.24-1.74,5.99-1.93,12.35-.19,6.21-.54,9.08-1.5,12.11-1.17,3.75-2.73,5.85-6.98,9.34l-1.61,1.33,14.78,.05c8.12,.02,21.42,.02,29.54,0l14.78-.05-1.68-1.39c-3.2-2.61-4.62-4.23-5.85-6.67-1.68-3.37-2.33-7.06-2.56-14.72-.19-6.24-.42-7.92-1.47-11.09-1.28-3.8-3.49-6.86-6.44-8.85-1.87-1.27-5.02-2.53-7.12-2.84-.68-.11-.73-.14-.73-.56,0-1.05-.8-2.22-1.93-2.79-.77-.4-2.27-.51-3.06-.22Z"/>
    <path class="cls-3" d="M93.02,114.95c0,.54,.56,1.95,1.08,2.7,1.16,1.68,3,2.93,5.03,3.41,2.66,.62,5.84-.32,7.74-2.29,.66-.68,1.56-2.21,1.76-2.98,.09-.34,.19-.74,.23-.9,.08-.25-.37-.26-7.88-.26-7.89,0-7.97,0-7.97,.31Z"/>
  </g>
</svg>